<?xml version="1.0" encoding="utf-8"?>
<!-- Generator: Adobe Illustrator 24.3.0, SVG Export Plug-In . SVG Version: 6.00 Build 0)  -->
<svg version="1.1" id="Layer_1" xmlns="http://www.w3.org/2000/svg" xmlns:xlink="http://www.w3.org/1999/xlink" x="0px" y="0px"
	 viewBox="0 0 312 390" style="enable-background:new 0 0 312 390;" xml:space="preserve">
<style type="text/css">
	.st0{fill:#2EB872;}
</style>
<path class="st0" d="M123.7,228.3c-0.6-0.8-1.4-1.3-2.4-1.5c-1-0.2-2,0.1-2.8,0.7l-17.7,13.3c-1.6,1.2-1.9,3.5-0.7,5.1
	c1.2,1.6,3.5,1.9,5.1,0.7l14.7-11l25.2,35.3v18.9c0,2,1.6,3.7,3.7,3.7c2,0,3.7-1.6,3.7-3.7v-9.8l43.8-62.2l9.6,7.3
	c1.6,1.2,3.9,0.9,5.1-0.7c1.2-1.6,0.9-3.9-0.7-5.1l-12.6-9.6c-0.8-0.6-1.8-0.9-2.8-0.7c-1,0.2-1.9,0.7-2.4,1.5l-40,56.8v-58.8
	c2.6,2.2,6.5,3.5,11.3,3.5c5.2,0,11.2-1.4,16.8-4c13-5.9,18.2-21.7,18.4-22.3c0.6-1.8-0.3-3.7-2-4.4c-0.3-0.1-7.9-3.5-16.9-3.5
	c-4.4,0-8.4,0.8-12,2.4c-6.2,2.8-11.4,6.6-14.9,10.8c-0.3,0.3-0.5,0.6-0.7,1v-17.2c2.6,2.2,6.5,3.5,11.3,3.5c5.2,0,11.2-1.4,16.8-4
	c13-5.9,18.2-21.7,18.4-22.3c0.6-1.8-0.3-3.7-2-4.4c-0.3-0.1-7.9-3.5-16.9-3.5c-4.4,0-8.4,0.8-12,2.4c-6.2,2.8-11.4,6.6-14.9,10.8
	c-0.3,0.3-0.5,0.6-0.7,1V141c2.6,2.2,6.5,3.5,11.3,3.5c5.2,0,11.2-1.4,16.8-4c13-5.9,18.2-21.7,18.4-22.3c0.6-1.8-0.3-3.7-2-4.4
	c-0.3-0.1-7.9-3.5-16.9-3.5c-4.4,0-8.4,0.8-12,2.4c-6.2,2.8-11.4,6.6-14.9,10.8c-0.3,0.3-0.5,0.6-0.7,1v-4.9
	c7.1-2.4,12.1-12.9,12.1-26.3c0-14.3-12.3-25.4-12.8-25.9c-1.4-1.2-3.5-1.2-4.9,0C146.3,67.8,134,79,134,93.3
	c0,12.8,4.6,22.9,11.1,25.9v4.1c-3.5-4.1-8.6-7.9-14.7-10.6c-3.5-1.6-7.6-2.4-12-2.4c-9,0-16.6,3.3-16.9,3.5c-1.7,0.8-2.6,2.7-2,4.4
	c0.2,0.7,5.4,16.5,18.4,22.3c5.7,2.6,11.7,4,16.8,4c4.2,0,7.8-1,10.4-2.7V157c-3.5-4.1-8.6-7.9-14.7-10.6c-3.5-1.6-7.6-2.4-12-2.4
	c-9,0-16.6,3.3-16.9,3.5c-1.7,0.8-2.6,2.7-2,4.4c0.2,0.7,5.4,16.5,18.4,22.3c5.7,2.6,11.7,4,16.8,4h0c4.2,0,7.8-1,10.4-2.7v15.2
	c-3.5-4.1-8.6-7.9-14.7-10.6c-3.5-1.6-7.6-2.4-12-2.4c-9,0-16.6,3.3-16.9,3.5c-1.7,0.8-2.6,2.7-2,4.4c0.2,0.7,5.4,16.5,18.4,22.3
	c5.7,2.6,11.7,4,16.8,4h0c4.2,0,7.8-1,10.4-2.7v49.1L123.7,228.3z M158.8,195.6c2.7-3.3,7.2-6.5,12.2-8.8c2.6-1.2,5.6-1.8,9-1.8
	c4.1,0,8,0.9,10.6,1.7c-0.5,1.2-1.2,2.5-2.1,4c-2.1,3.5-5.8,8.2-10.9,10.6c-4.8,2.1-9.7,3.3-13.8,3.3c-3.8,0-6.5-1-7.2-2.6
	C155.8,200.7,156.7,198.2,158.8,195.6z M158.8,161.9c2.7-3.3,7.2-6.5,12.2-8.8c2.6-1.2,5.6-1.8,9-1.8c4.1,0,8,0.9,10.6,1.7
	c-2,4.3-6.2,11.5-13.1,14.6c-4.8,2.1-9.7,3.3-13.8,3.3c-3.8,0-6.5-1-7.2-2.6C155.8,166.9,156.7,164.5,158.8,161.9z M158.8,128.2
	c2.7-3.3,7.2-6.5,12.2-8.8c2.6-1.2,5.6-1.8,9-1.8c4.1,0,8,0.9,10.6,1.7c-0.5,1.2-1.2,2.5-2.1,4c-2.1,3.5-5.8,8.2-10.9,10.6
	c-4.8,2.1-9.7,3.3-13.8,3.3c-3.8,0-6.5-1-7.2-2.6C155.8,133.2,156.7,130.7,158.8,128.2z M142,134.6c-0.7,1.6-3.5,2.6-7.2,2.6
	c-4.2,0-9.1-1.2-13.8-3.3c-6.9-3.1-11.1-10.4-13.1-14.6c2.6-0.8,6.4-1.7,10.6-1.7c3.4,0,6.4,0.6,9,1.8c5.1,2.3,9.5,5.5,12.2,8.8
	C141.7,130.7,142.6,133.2,142,134.6z M142,168.4c-0.7,1.6-3.5,2.6-7.2,2.6c-4.2,0-9.1-1.2-13.8-3.3c-6.9-3.1-11.1-10.3-13.1-14.6
	c2.6-0.8,6.5-1.7,10.6-1.7c3.4,0,6.4,0.6,9,1.8c5.1,2.3,9.5,5.5,12.2,8.8C141.7,164.5,142.6,166.9,142,168.4z M142,202.1
	c-0.7,1.6-3.5,2.6-7.2,2.6c-4.2,0-9.1-1.2-13.8-3.3c-6.9-3.1-11.1-10.4-13.1-14.6c2.6-0.8,6.4-1.7,10.6-1.7c3.4,0,6.4,0.6,9,1.8
	c5.1,2.3,9.5,5.5,12.2,8.8C141.7,198.2,142.6,200.7,142,202.1z M141.3,93.3c0-7.6,4.9-14.4,8-17.9c0.8,1,1.8,2.2,2.8,3.6
	c2.4,3.4,5.2,8.6,5.2,14.3c0,11.9-4.7,19.5-8,19.5C146,112.8,141.3,105.2,141.3,93.3z"/>
</svg>
