<?xml version="1.0" encoding="utf-8"?>
<!-- Generator: Adobe Illustrator 24.3.0, SVG Export Plug-In . SVG Version: 6.00 Build 0)  -->
<svg version="1.1" id="Layer_1" xmlns="http://www.w3.org/2000/svg" xmlns:xlink="http://www.w3.org/1999/xlink" x="0px" y="0px"
	 viewBox="0 0 312 390" style="enable-background:new 0 0 312 390;" xml:space="preserve">
<style type="text/css">
	.st0{fill:#2EB872;}
</style>
<path class="st0" d="M241.5,172.1l5.1-26.7c0.1-0.3,0.2-0.7,0.3-1c0.4-0.6,0.6-1.3,0.6-2c0-14.5-13.3-26.5-30.1-27.2
	c1.3-7.5,3.2-10.2,4.1-11c1.4-1.4,1.4-3.7,0-5.2c-1.4-1.4-3.7-1.4-5.2,0c-3.1,3.1-5.1,8.5-6.3,16.6c-2.6,0.4-5.1,1.1-7.4,2
	c-4-9-13.5-15.6-24.6-17.1c0.2-6,0.9-11.7,2.3-13.8c1.1-1.7,0.6-4-1.1-5.1c-1.7-1.1-4-0.6-5.1,1.1c-2.4,3.7-3.3,11-3.5,17.5
	c-4.7,0.3-9.1,1.4-13,3.3c-5.3-6.7-13.8-11-23.2-11.8c-1.7-4.4-4.6-8.8-9.8-10.5c-1.9-0.6-4,0.4-4.6,2.3c-0.6,1.9,0.4,4,2.3,4.6
	c1.8,0.6,3.1,2,4.2,3.7c-12,1.3-21.1,7.5-24.7,16.9c-2.1-0.4-4.3-0.6-6.5-0.6c-1.4,0-2.7,0.1-4.1,0.2c-0.2-0.4-0.5-0.9-0.7-1.3
	c-3.2-5.5-6.3-9.7-6.5-9.9c-1.2-1.6-3.5-1.9-5.1-0.7c-1.6,1.2-1.9,3.5-0.7,5.1c0,0,2.8,3.7,5.6,8.5c-11.8,4-20.2,13.8-20.2,25.4
	c0,2.6,0.4,5.2,1.3,7.7c0.1,0.8,0.2,1.6,0.5,2.4l5.1,26.8c0,0,0,0,0,0l16.3,85.2c0.1,0.3,0.2,0.6,0.3,0.9c0.3,0.6,3.2,6,13.4,11.2
	c13,6.6,31.7,9.9,55.6,9.9c24.1,0,42.8-3.3,55.7-9.9c10.1-5.2,12.9-10.6,13.2-11.2c0.1-0.3,0.2-0.6,0.3-0.9L241.5,172.1
	C241.5,172.1,241.5,172.1,241.5,172.1z M180.9,270.5l7-81.9c7.2-0.7,14-1.7,20.2-2.9l-13,82C191.2,268.8,186.4,269.7,180.9,270.5z
	 M116.9,267.7l-12.7-82c6.2,1.2,13,2.2,20.2,2.9l6.8,81.8C125.7,269.7,121,268.8,116.9,267.7z M131.8,189.3
	c6.7,0.5,13.6,0.8,20.7,0.9l-0.1,80.5c0,0.5,0.1,0.9,0.3,1.3c-5.2-0.1-9.9-0.3-14.2-0.7c0.1-0.3,0.1-0.6,0.1-1L131.8,189.3z
	 M159.7,270.6l0.1-80.5c7.1-0.1,14.1-0.4,20.7-0.9l-7,81.1c0,0.3,0,0.7,0.1,1c-4.3,0.4-9,0.6-14.2,0.7
	C159.6,271.5,159.7,271.1,159.7,270.6z M156,182.8c-20.6,0-40.1-2-55.2-5.3c-0.1,0-0.3-0.1-0.4-0.1c-9.9-2.2-17.9-5-23.1-8.2
	l-2.8-14.4c15,8.7,44.9,13.4,75.5,14c0,0,0.1,0,0.1,0c0,0,0,0,0.1,0c1.9,0,3.8,0.1,5.8,0.1c23.7,0,46-2.5,62.9-6.9
	c7.8-2.1,13.9-4.4,18.5-7.1l-2.7,14.3C221.6,177.4,190.4,182.8,156,182.8z M103.4,150.8c0-8.8,7.1-16.3,16.9-19c-0.1,3.4,0,6,0,6.7
	c0.1,2,1.7,3.5,3.7,3.5c0.1,0,0.1,0,0.2,0c2-0.1,3.6-1.8,3.5-3.8c-0.1-2.1-0.1-4.7,0.1-7.4c0.1,0,0.1,0,0.2,0
	c13.5,0,24.4,8.9,24.4,19.9c0,3.8-1.3,7.5-3.8,10.7c-16-0.4-31-1.9-43.8-4.4C103.9,155.1,103.4,153,103.4,150.8z M169.3,142.5
	c0.6,1.4,1.9,2.3,3.4,2.3c0.4,0,0.9-0.1,1.4-0.3c1.9-0.7,2.8-2.9,2-4.7c0-0.1-0.8-2-1.9-4.5c3.7,0.1,7.2,1,10.4,2.4
	c-0.3,1.5-0.5,3.1-0.5,4.7c0,6.4,2.6,12.5,7.3,17.3c-10.6,1.3-22.2,2-34.3,2c1.7-3.4,2.6-7,2.6-10.8c0-3.8-0.9-7.5-2.6-10.8
	c2.8-1.9,6-3.3,9.5-4.1C167.4,138,168.4,140.2,169.3,142.5z M240.2,140.7C240.2,140.8,240.2,140.8,240.2,140.7
	c-0.1,0.2-0.1,0.4-0.2,0.5c0,0,0,0,0,0l-0.4,2c-0.7,1.4-2.3,3.1-4.9,4.6c-4,2.5-10.2,5-17.8,7c-4.8,1.3-10.1,2.4-15.8,3.3
	c-6.2-3.8-9.8-9.6-9.8-16c0-1.8,0.3-3.7,0.9-5.4c2.4-6.8,8.9-11.9,16.9-13.7c-0.3,4.2-0.3,7.2-0.3,7.4c0,2,1.7,3.6,3.7,3.6
	c0,0,0,0,0,0c2,0,3.6-1.7,3.6-3.7c0,0,0-3.5,0.3-8.1C229.1,122.7,239.2,130.7,240.2,140.7z M196.1,120.9c-3.8,2.6-6.9,5.9-9.1,9.8
	c-4.4-1.8-9.2-2.8-14.1-2.8c-0.7,0-1.4,0.1-2.2,0.1c-4-8-6.3-10-7.9-10.8c-1.8-0.9-4-0.2-4.9,1.6c-0.9,1.8-0.2,3.9,1.6,4.9
	c0.8,0.6,2.1,2.6,3.7,5.5c-3.8,1-7.3,2.7-10.3,4.8c-1.2-1.3-2.6-2.6-4-3.7c-0.2-1-0.3-2.1-0.3-3.1c0-10.3,9.7-18.9,22.1-19.8
	c0,2.4,0.1,4.3,0.2,5.3c0.1,1.9,1.7,3.4,3.6,3.4c0.1,0,0.1,0,0.2,0c2-0.1,3.6-1.8,3.4-3.9c-0.1-1.4-0.1-2.9-0.2-4.5
	C186.4,109.2,193.3,114.2,196.1,120.9z M128.9,98.8c0.3,1.8,0.5,3.5,0.5,4.6c0,2,1.7,3.6,3.7,3.6c0,0,0,0,0,0c2,0,3.6-1.7,3.6-3.7
	c0-0.2,0-1.9-0.4-4.2c6.1,1,11.4,3.9,15,8.1c-6,4.7-9.8,11.4-10.2,18.9c-3.9-1.6-8.2-2.4-12.8-2.5c0.6-3.2,1.4-6.1,2.7-7.6
	c1.3-1.6,1-3.9-0.6-5.1c-1.6-1.3-3.9-1-5.1,0.6c-1.8,2.2-2.9,5.4-3.7,8.7c-3.2-4.2-7.7-7.4-12.9-9.5
	C111.8,103.8,119.2,99.5,128.9,98.8z M87.2,116.4c1.7,3.8,2.5,6.9,2.5,9.2c-0.1,2,1.5,3.7,3.6,3.8c0,0,0.1,0,0.1,0
	c2,0,3.6-1.6,3.7-3.6c0.1-3-0.7-6.5-2.3-10.5c0.2,0,0.4,0,0.7,0c9,0,17,3.9,21.3,10.1c-11.9,3.9-20.4,13.9-20.4,25.5
	c0,1.5,0.2,3,0.5,4.5c-0.5-0.1-1.1-0.3-1.6-0.4c-7.6-2-13.7-4.4-17.8-7c-0.9-0.6-1.7-1.2-2.4-1.8c-0.1-0.2-0.2-0.4-0.4-0.6
	c-1.1-1.5-2-3.1-2.6-4.8c0,0,0,0,0-0.1c0-0.1,0-0.1-0.1-0.2c0,0,0-0.1,0-0.1c-0.6-1.7-0.9-3.5-0.9-5.3
	C70.8,126.6,77.7,119.2,87.2,116.4z M93.8,255.2l-14.7-76.8c4.8,2.2,10.7,4.1,17.5,5.7l12.6,81.1C98.6,261.1,94.7,256.5,93.8,255.2z
	 M218.1,255.2c-0.8,1.2-4.6,5.9-15.1,9.9l12.8-81.2c6.6-1.6,12.3-3.5,17-5.6L218.1,255.2z"/>
</svg>
