<?xml version="1.0" encoding="utf-8"?>
<!-- Generator: Adobe Illustrator 24.3.0, SVG Export Plug-In . SVG Version: 6.00 Build 0)  -->
<svg version="1.1" id="Layer_1" xmlns="http://www.w3.org/2000/svg" xmlns:xlink="http://www.w3.org/1999/xlink" x="0px" y="0px"
	 viewBox="0 0 312 390" style="enable-background:new 0 0 312 390;" xml:space="preserve">
<style type="text/css">
	.st0{fill:#2FB672;}
</style>
<path class="st0" d="M86.1,204.9c-15.4,0-27.9,12.5-27.9,27.9c0,15.4,12.5,27.9,27.9,27.9c15.4,0,27.9-12.5,27.9-27.9
	C114,217.4,101.5,204.9,86.1,204.9z M86.1,253.3c-11.3,0-20.6-9.2-20.6-20.6c0-11.3,9.2-20.6,20.6-20.6s20.6,9.2,20.6,20.6
	C106.7,244.1,97.4,253.3,86.1,253.3z"/>
<path class="st0" d="M86.1,221.6c-6.2,0-11.2,5-11.2,11.2c0,6.2,5,11.2,11.2,11.2c6.2,0,11.2-5,11.2-11.2
	C97.3,226.6,92.3,221.6,86.1,221.6z M86.1,236.6c-2.1,0-3.9-1.7-3.9-3.9c0-2.1,1.7-3.9,3.9-3.9c2.1,0,3.9,1.7,3.9,3.9
	C90,234.9,88.2,236.6,86.1,236.6z"/>
<path class="st0" d="M239.3,212.3v-25.5c0-1.8-1.3-3.3-3-3.6l-32.6-5.8v-31.6c0-5.5,4.5-10,10-10c2,0,3.7-1.6,3.7-3.7v-11.3
	c0-2-1.6-3.7-3.7-3.7c-15.8,0-28.6,12.8-28.6,28.6v28.4l-10.4-1.8l-15.9-43.2h4.1c2,0,3.7-1.6,3.7-3.7v-14.7c0-2-1.6-3.7-3.7-3.7H68
	c-2,0-3.7,1.6-3.7,3.7v14.7c0,2,1.6,3.7,3.7,3.7h5.2v45.6H59.3c-2,0-3.7,1.6-3.7,3.7c0,0.2,0,0.4,0.1,0.5c0,0.2-0.1,0.3-0.1,0.5
	v18.4c-9.7,8.5-15.9,21-15.9,34.9c0,25.5,20.8,46.3,46.3,46.3c21.3,0,39.3-14.5,44.7-34.1h69.8c0,0.6-0.1,1.3-0.1,1.9
	c0,19.2,15.6,34.8,34.8,34.8c19.2,0,34.8-15.6,34.8-34.8C270.2,229.1,256.7,214.3,239.3,212.3z M192.4,145.9
	c0-10.5,7.6-19.2,17.6-21v4c-7.8,1.7-13.7,8.6-13.7,17v30.4l-3.9-0.7V145.9z M71.7,114.5h87.5v7.4h-5.7H76.9h-5.2V114.5z
	 M86.1,271.8c-21.5,0-39-17.5-39-39c0-21.5,17.5-39,39-39c21.5,0,39,17.5,39,39C125.1,254.3,107.6,271.8,86.1,271.8z M132.2,237.7
	c0.2-1.6,0.3-3.3,0.3-5c0-25.5-20.8-46.3-46.3-46.3c-8.4,0-16.3,2.3-23.1,6.2v-10.5h13.9c2,0,3.7-1.6,3.7-3.7v-49.3H151l17.6,47.7
	c0.4,1.2,1.5,2.1,2.8,2.3l60.6,10.7v22.3c-14.5,1.4-26.4,11.8-30.2,25.4H132.2z M235.4,274.5c-15.2,0-27.5-12.4-27.5-27.5
	c0-15.2,12.4-27.5,27.5-27.5c15.2,0,27.5,12.4,27.5,27.5C262.9,262.1,250.6,274.5,235.4,274.5z"/>
<path class="st0" d="M235.4,225.6c-11.8,0-21.4,9.6-21.4,21.4c0,11.8,9.6,21.4,21.4,21.4s21.4-9.6,21.4-21.4
	C256.7,235.2,247.2,225.6,235.4,225.6z M235.4,261c-7.7,0-14-6.3-14-14c0-7.7,6.3-14,14-14s14,6.3,14,14
	C249.4,254.7,243.1,261,235.4,261z"/>
<path class="st0" d="M235.4,237.8c-5.1,0-9.2,4.1-9.2,9.2c0,5.1,4.1,9.2,9.2,9.2c5.1,0,9.2-4.1,9.2-9.2
	C244.5,241.9,240.4,237.8,235.4,237.8z M235.4,248.8c-1,0-1.9-0.8-1.9-1.9c0-1,0.8-1.9,1.9-1.9c1,0,1.9,0.8,1.9,1.9
	C237.2,248,236.4,248.8,235.4,248.8z"/>
<path class="st0" d="M147.7,137.7c-0.5-1.4-1.9-2.3-3.4-2.3h-53c-2,0-3.7,1.6-3.7,3.7v36.8c0,1.8,1.4,3.4,3.2,3.6
	c0.5,0.1,45.6,6.2,56.3,37.5c0.5,1.5,1.9,2.5,3.5,2.5h23.6c1.2,0,2.3-0.6,3-1.6c0.7-1,0.8-2.3,0.4-3.4L147.7,137.7z M153.1,212.1
	c-5.6-13.7-17.7-24.8-35.1-32.3c-9.7-4.2-18.6-6.2-23.1-7v-30.1h46.9l27,69.4H153.1z"/>
</svg>
