<?xml version="1.0" encoding="utf-8"?>
<!-- Generator: Adobe Illustrator 24.3.0, SVG Export Plug-In . SVG Version: 6.00 Build 0)  -->
<svg version="1.1" id="Layer_1" xmlns="http://www.w3.org/2000/svg" xmlns:xlink="http://www.w3.org/1999/xlink" x="0px" y="0px"
	 viewBox="0 0 312 390" style="enable-background:new 0 0 312 390;" xml:space="preserve">
<style type="text/css">
	.st0{fill:#2EB872;}
</style>
<path class="st0" d="M108.3,177.8c0.4,0,0.8-0.1,1.2-0.2c1.9-0.7,2.9-2.7,2.3-4.6c-8.2-23.8,2.2-44.2,2.3-44.4
	c0.9-1.8,0.2-4-1.5-4.9c-1.8-0.9-4-0.2-4.9,1.5c-0.5,0.9-11.9,23.3-2.7,50.1C105.3,176.9,106.7,177.8,108.3,177.8z"/>
<path class="st0" d="M69.2,210.7c0.2,0,0.3,0,0.5,0l4.6-0.3c0,0.6,0,1.2,0,1.8c0,32.8,26.3,59.4,58.5,59.4h42.8
	c29,0,53.7-21.7,57.9-50.7c5.5,0.7,6.8,0.8,8.2-0.8c2.4-2.7-0.1-5.5-1.5-7.2c-1-1.2-2.4-2.7-4.2-4.6c-0.3-0.3-0.6-0.6-0.9-0.9
	c1-0.1,1.9-0.3,2.4-0.4c2.3-0.3,4.3-0.7,5.9-0.9c0.8-0.1,1.5-0.3,2-0.4c3.2-0.7,3.6-2.7,3.6-3.8c0-2.4-1.8-3.3-4-4.4
	c-1.1-0.6-2.5-1.2-3.8-1.8c-0.8-0.4-1.9-0.9-2.1-1c-0.7-0.4-1.6-0.9-2.5-1.5l5.5-1.2c1.6-0.3,2.7-1.7,2.9-3.3
	c0.1-1.6-0.8-3.1-2.3-3.7l-32.4-13.1c0.9-9.7-1.4-22.1-6.1-32.6c-3.2-7.2-7.1-12.7-11.5-16.4c0-0.2,0-0.4-0.1-0.7
	c-4-15.6-13.4-33.9-27-34.4c-6.3-0.2-12.7,3.6-18.5,11c-3.5,4.5-6.7,10.4-9.3,16.8c-6.4-6.6-13-10.2-19.3-10.2
	c-0.8,0-1.6,0.1-2.4,0.2c-9.1,1.3-16.8,10.3-21.8,25.2c-4.1,12.3-5.6,26.9-4,38c0.2,1.6,0.6,3.2,1,4.8l-21.1,3.8
	c-3,0.5-5.1,2.9-5.1,5.6c0,2.7,2,5.1,4.8,5.8l7.3,1.7l-12.2,9.6c-2.2,1.8-2.8,4.8-1.4,7.2C64.7,209.4,66.9,210.6,69.2,210.7z
	 M175.6,264.4h-42.8c-28.2,0-51.2-23.4-51.2-52.1c0-0.7,0-1.5,0.1-2.2l10.7-0.6c-0.4,0.9-0.8,1.8-1.2,2.8
	c-3.3,8.1-4.2,10.5-2.2,12.6c1.5,1.6,2.5,1.4,10.5,0.1c3.8-0.6,9-1.6,15.4-2.8c8.9-1.6,17.9-3.3,21.1-3.9l16.5,7.9
	c0.9,0.4,1.9,0.7,2.9,0.7c1.7,0,3.2-0.5,4.4-1.5l8.6-7.3l33.2,9c0.6,0.2,1.1,0.2,1.7,0.2c0,0,0.1,0,0.1,0c1.5,0,2.9-0.5,4.1-1.3
	c2-1.5,2.8-4,2-6.3l-0.8-2.4c3.3,0.5,7.5,1.2,11.7,1.8c2.2,0.3,4.1,0.6,5.9,0.9C222.6,245.3,201,264.4,175.6,264.4z M197.5,142.6
	c4.2,9.5,6.4,21.1,5.5,29.6c-0.8,7.8-4.4,14.8-10.1,19.7c-5.7,4.9-12.7,7.2-19.9,6.4c-7.4-0.8-14.1-4.8-18.6-11
	c4.3-8,6.2-18,4.6-28.3c-0.6-3.9-1.7-8.2-3.2-12.6c6-11.3,15.8-21.8,24.8-20.9C186.8,126.1,192.9,132.3,197.5,142.6z M152.9,103.6
	c2.9-3.8,7.5-8.3,12.4-8.1c4.8,0.2,8.9,4.7,11.5,8.5c2.7,3.9,5.1,9,7,14.6c-0.8-0.2-1.6-0.4-2.4-0.4c-11.5-1.2-21.9,8.5-29.1,19.6
	c-2.1-4.5-4.5-8.9-7.2-12.8c-0.6-0.9-1.2-1.7-1.8-2.5C145.8,115.1,149.1,108.5,152.9,103.6z M101.3,133.4c4-12,9.8-19.3,15.9-20.2
	c0.4-0.1,0.9-0.1,1.4-0.1c5.3,0,11.7,4.4,17.8,12.3c0,0,0,0,0,0c0.9,1.1,1.8,2.4,2.6,3.6c6.4,9.4,11.4,21.6,12.7,31
	c2.7,18.6-7.2,35.5-22.1,37.7c-1.1,0.2-2.2,0.2-3.2,0.2h0c-13.9,0-26.3-12.9-28.8-29.9C96.2,158.1,97.6,144.5,101.3,133.4z
	 M87.8,191.8c1.1-0.9,1.6-2.3,1.3-3.7c-0.3-1.4-1.4-2.4-2.7-2.8l-7.8-1.8l15.1-2.7c6.1,14.5,18.8,24.3,32.7,24.3h0
	c1.4,0,2.9-0.1,4.3-0.3c7.7-1.1,14.4-5.2,19.4-11.2c5.6,6.7,13.5,11,22.1,11.9c1.2,0.1,2.3,0.2,3.5,0.2c8,0,15.7-2.9,21.9-8.3
	c5.5-4.7,9.4-10.9,11.3-17.9l20,8.1l-3,0.6c-1.5,0.3-2.6,1.5-2.8,3c-0.2,1.5,0.4,3,1.7,3.7l0.6,0.4c2.5,1.5,5.8,3.4,8.4,5
	c-3.1,0.5-5.9,0.8-6.6,0.8c-1.5,0-2.8,0.9-3.4,2.3c-0.6,1.4-0.2,2.9,0.8,4c1.9,1.8,3.9,3.9,5.7,5.7c-7-1-17.2-2.5-26.6-4
	c-1.3-0.2-2.6,0.3-3.4,1.3c-0.8,1-1.1,2.3-0.7,3.5l1.9,5.5l-33.2-9c-1.2-0.3-2.4,0-3.3,0.7l-9.7,8.2l-17.3-8.3
	c-0.7-0.3-1.5-0.4-2.3-0.3c-12.1,2.3-30.2,5.7-39,7.1c1.2-3.1,3-7.3,4.6-11c0.5-1.2,0.4-2.5-0.3-3.6c-0.7-1-1.9-1.6-3.2-1.6
	l-24.5,1.3L87.8,191.8z"/>
<path class="st0" d="M183.1,133.1c-1.7,1.1-2.2,3.3-1.2,5c0.1,0.2,11.7,18.9,9.5,35.6c-0.3,2,1.2,3.8,3.2,4.1c0.2,0,0.3,0,0.5,0
	c1.8,0,3.4-1.3,3.6-3.2c2.5-19.2-10-39.5-10.6-40.4C187.1,132.5,184.8,132,183.1,133.1z"/>
</svg>
