<?xml version="1.0" encoding="utf-8"?>
<!-- Generator: Adobe Illustrator 24.3.0, SVG Export Plug-In . SVG Version: 6.00 Build 0)  -->
<svg version="1.1" id="Layer_1" xmlns="http://www.w3.org/2000/svg" xmlns:xlink="http://www.w3.org/1999/xlink" x="0px" y="0px"
	 viewBox="0 0 312 390" style="enable-background:new 0 0 312 390;" xml:space="preserve">
<style type="text/css">
	.st0{fill:#2EB872;}
</style>
<g>
	<path class="st0" d="M126.7,72.5c-1.6-1.6-3.7-2.5-6.1-2.5c0,0-0.1,0-0.1,0c-0.9,0-3.7,0.1-6.1,2.3c-2.4,2.2-3.7,5.7-3.7,10.3v45.1
		c0,1.2-0.4,1.9-0.6,2.2h-5.5c-0.2-0.3-0.6-1-0.6-2.2V75.1c0.1-1.2,0.3-6.4-2.9-9.9c-1.8-1.9-4.2-2.9-7.1-2.9c-3.7,0-5.9,1.6-7.1,3
		c-3.1,3.5-2.9,8.7-2.8,9.9v52.7c0,1.2-0.4,1.9-0.6,2.2h-5.5c-0.2-0.3-0.6-1-0.6-2.2V82.6c0-4.6-1.2-8.1-3.7-10.3
		c-2.4-2.2-5.2-2.3-6.1-2.3c0,0-0.1,0-0.1,0c-2.4,0-4.5,0.9-6.1,2.5c-3.6,3.6-3.6,9.7-3.6,10.4v52.7c0,0,0,0,0,0v18
		c0,8.3,8.3,14.8,19,14.9v13.3c0,0.2,0,0.4,0.1,0.6l0,13.1l-14.8,68.6c0,0.1-0.1,0.3-0.1,0.4c-0.6,7.7,2,15.1,7.4,21
		c6.3,6.8,15.3,10.5,25.3,10.5c10.3,0,19.7-4,25.7-11c5-5.8,7.2-13,6.1-20.3c0-0.1,0-0.1,0-0.2L112.7,195v-13.4v-13.3
		c10-0.7,17.6-6.9,17.6-14.9v-18v0l0-52.6C130.3,82.2,130.3,76,126.7,72.5z M105.8,178.3H83.4v-9.8h22.4V178.3z M119.6,265.7
		c0.8,5.2-0.8,10.4-4.5,14.7c-4.7,5.5-12.2,8.7-20.5,8.7c-8.2,0-15.4-2.9-20.3-8.3c-4-4.4-6.1-9.9-5.7-15.6l14.8-68.7
		c0.1-0.2,0.1-0.5,0.1-0.7l0-10.6h22.4v10.3c0,0.2,0,0.4,0.1,0.7L119.6,265.7z M123.4,153.5c0,4.4-5.7,8.1-12.5,8.1h-1.7H80h-3
		c-6.8,0-12.5-3.7-12.5-8.1v-10.2c0,0,0,0,0,0l0-60.5c0-1.2,0.4-4.2,1.6-5.5c0.3-0.3,0.6-0.5,1.4-0.5c0.1,0,0.3,0,0.4,0
		c0,0,0.6,0.1,1.1,0.5c0.9,0.8,1.4,2.7,1.4,5.3v45.1c0,5.1,3.2,9.1,7.2,9.1h6c4.1,0,7.2-4,7.2-9.1V74.9c0-0.1,0-0.2,0-0.4
		c-0.1-1,0-3.6,1.1-4.8c0.3-0.3,0.8-0.7,2.1-0.7c1.2,0,1.7,0.4,2,0.7c1.1,1.2,1.2,3.8,1.2,4.8c0,0.1,0,0.2,0,0.3v52.8
		c0,5,3.1,8.9,7.1,9c0.1,0,0.1,0,0.2,0h6c4.1,0,7.2-4,7.2-9.1V82.6c0-2.5,0.5-4.3,1.4-5.2c0.5-0.5,1.1-0.6,1.3-0.6
		c0.2,0,0.1,0,0.3,0c0.7,0,1.1,0.2,1.4,0.5c1.2,1.2,1.6,4.2,1.6,5.5v52.7v7.8V153.5z"/>
	<path class="st0" d="M238.7,110.9c-12.3-32.8-23.9-48.7-35.3-48.7c-11.4,0-22.9,15.9-35.3,48.7c-8.7,23.1-14.6,46.6-14.7,46.8
		c-0.3,1,0,2.1,0.6,2.9c0.6,0.8,1.6,1.3,2.7,1.3h28.6v20.2c0,0.2-0.1,0.5-0.1,0.7v14l-14.8,68.6c0,0.1-0.1,0.3-0.1,0.5
		c-0.6,7.7,2,15.1,7.4,21c6.2,6.7,15.5,10.5,25.5,10.5c10.4,0,19.8-4,25.8-11.1c5-5.8,7.1-13,6.1-20.2c0-0.1,0-0.1,0-0.2l-13.7-69.4
		v-13.1c0-0.2,0.1-0.4,0.1-0.7V162h28.6c0,0,0,0,0,0c1.9,0,3.4-1.5,3.4-3.4c0-0.4-0.1-0.8-0.2-1.1
		C252.7,154.8,247,132.7,238.7,110.9z M228.5,267.2c0.8,5.2-0.8,10.4-4.5,14.6c-4.7,5.5-12.3,8.7-20.6,8.7c-8.2,0-15.5-3-20.4-8.3
		c-4-4.4-6-9.9-5.7-15.5l14.8-68.7c0.1-0.2,0.1-0.5,0.1-0.7v-11h22.4V197c0,0.2,0,0.4,0.1,0.7L228.5,267.2z M214.7,179.5h-22.4V162
		h22.4V179.5z M218.1,155.1h-29.3h-27.5c2.1-7.7,6.9-24.9,13.3-41.8c15-39.9,25.2-44.2,28.9-44.2c3.7,0,13.8,4.3,28.8,44.2
		c6.4,17,11.3,34.1,13.4,41.9H218.1z"/>
	<path class="st0" d="M190.3,143.3h-9.4l12.7-42.7c0.5-1.8-0.5-3.7-2.3-4.3c-1.8-0.5-3.7,0.5-4.3,2.3l-14,47.1c-0.3,1-0.1,2.2,0.5,3
		c0.6,0.9,1.7,1.4,2.7,1.4h14c1.9,0,3.4-1.5,3.4-3.4C193.7,144.8,192.2,143.3,190.3,143.3z"/>
</g>
</svg>
