<?xml version="1.0" encoding="utf-8"?>
<!-- Generator: Adobe Illustrator 24.3.0, SVG Export Plug-In . SVG Version: 6.00 Build 0)  -->
<svg version="1.1" id="Layer_1" xmlns="http://www.w3.org/2000/svg" xmlns:xlink="http://www.w3.org/1999/xlink" x="0px" y="0px"
	 viewBox="0 0 312 390" style="enable-background:new 0 0 312 390;" xml:space="preserve">
<style type="text/css">
	.st0{fill:#2FB672;}
</style>
<g>
	<path class="st0" d="M252.5,202.4c-0.5-5.1-1.3-11-2.4-17.2c-1.1-5.7-2.5-11.6-4.3-17.4c0.4-1,0.9-2.6,1.5-4.6
		c1-3.6,1.9-8.4,1.9-13.8c0-3.9-0.5-8.1-2-12.2c-1.5-4.1-3.9-8.2-7.6-11.6l0,0c-0.2-0.2-1.5-1.3-3.8-2.4c-2.3-1.1-5.7-2.2-9.9-2.2
		c-3.2,0-6.8,0.6-10.8,2.2c-0.1,0-0.2,0-0.2,0c-0.1,0-0.1,0-0.1,0l0,0c-0.2-0.3-1-1.5-2.1-3.2c-1-1.4-2.4-3.2-3.9-5.1
		c-2.4-2.8-5.3-5.9-8.5-8.4c-1.6-1.2-3.4-2.3-5.3-3.2c-1.9-0.8-3.9-1.4-6.1-1.4c-1.6,0-3.3,0.3-4.9,1.1l0,0l-58,26.2
		c-0.7,0.2-1.4,0.4-2.1,0.7c-0.4,0.2-1.1,0.5-2,1.3c-0.7,0.6-1.4,1.4-2.2,2.5c-1.1,1.7-2.1,4-2.9,7.2c-0.6,2.7-1.1,6-1.2,10.2
		c-0.5-0.4-1-0.8-1.5-1.2c-1.6-1.2-3.3-2.3-5.1-3c-1.8-0.8-3.8-1.3-5.9-1.3c-1.6,0-3.2,0.3-4.8,1c0,0,0,0,0,0c0,0,0,0,0,0
		l-20.9,10.1c-0.4,0.2-1,0.5-1.7,0.9c-0.7,0.5-1.5,1.3-2.2,2.3c-1.1,1.6-2.1,3.7-2.8,6.7c-0.7,3-1.2,6.8-1.2,11.8
		c0,3,0.2,6.4,0.5,10.3c-1,2.2-3.7,8.3-6.5,15.6C61.7,209,60,214,58.7,219c-0.7,2.5-1.2,4.9-1.6,7.2c-0.4,2.2-0.6,4.4-0.6,6.4
		c0,0.2,0,0.6,0,1.1c0,1.1,0.1,3,0.6,5.4c0.8,3.5,2.5,8.1,6,13c3.6,4.9,9,10,17.1,14.5l0.2,0.1l34.5,17.3l0.1,0
		c0.1,0,1.7,0.8,4.1,1.5c1.2,0.4,2.6,0.7,4.2,1c1.5,0.3,3.2,0.5,5,0.5c1.8,0,3.7-0.2,5.6-0.8c0.1,0,0.1,0,0.2-0.1c0,0,0.1,0,0.1,0
		c1.3-0.4,2.6-1.1,3.8-1.9c0.2-0.1,0.4-0.3,0.6-0.4l23-12.8l0,0c0.4-0.2,0.6-0.4,0.8-0.6c0.4-0.4,0.7-0.8,0.8-1.1
		c0.2-0.3,0.3-0.6,0.4-0.8c0.2-0.5,0.4-1,0.5-1.4c0.2-0.8,0.4-1.7,0.6-2.6c0.1-0.4,0.1-0.8,0.2-1.2c0.7,0.3,1.5,0.6,2.5,0.8
		c1.3,0.4,2.7,0.8,4.3,1.1c1.6,0.3,3.3,0.5,5.2,0.5c1.9,0,3.8-0.2,5.7-0.8c1-0.3,2-0.7,3-1.3c0.1,0,0.1,0,0.2-0.1h0l57-23.2l0,0
		c2.4-0.9,4.4-2.3,5.9-3.9c1.2-1.2,2-2.6,2.7-3.9c1-2,1.6-4.1,1.9-5.9c0.3-1.8,0.4-3.4,0.4-4.6c0-0.9,0-1.6-0.1-1.9
		C253.5,218.7,253.4,211.8,252.5,202.4z M135.9,274.8c-0.4,1.1-0.9,1.8-1.4,2.4c-0.1,0.2-0.3,0.3-0.4,0.5l-2.8,1.5
		c-0.1,0-0.2,0.1-0.3,0.1c-0.9,0.2-1.9,0.3-2.9,0.3c-1.2,0-2.5-0.1-3.7-0.4c-1.8-0.3-3.5-0.8-4.7-1.3c-0.6-0.2-1.1-0.4-1.4-0.5
		c-0.2-0.1-0.3-0.1-0.4-0.2l-0.1,0l-34.3-17.2c-4.8-2.7-8.5-5.6-11.2-8.3c-4.1-4.2-6.3-8.2-7.5-11.4c-1.2-3.2-1.3-5.7-1.3-6.7
		c0-0.2,0-0.4,0-0.5c0,0,0-0.1,0-0.1v0l0,0c0-0.1,0-0.2,0-0.4c0-1.5,0.2-3.4,0.5-5.4c0.6-3.5,1.7-7.6,3-11.7c2-6.2,4.4-12.3,6.3-17
		c1-2.3,1.8-4.2,2.4-5.6c0.3-0.7,0.5-1.2,0.7-1.5c0.1-0.2,0.1-0.3,0.2-0.4c0,0,0-0.1,0-0.1l0,0l0,0c0.3-0.6,0.4-1.3,0.3-1.9
		c-0.4-4.1-0.6-7.6-0.6-10.6c0-4.1,0.3-7.1,0.8-9.3c0.3-1.7,0.8-2.9,1.1-3.7c0.6-1.3,1.1-1.7,1.2-1.9c0,0,0,0,0,0c0,0,0.1,0,0.1,0
		c0,0,0.1,0,0.1,0c0.6-0.3,1.2-0.4,1.8-0.4c0.7,0,1.6,0.2,2.6,0.6c0.9,0.3,1.8,0.8,2.7,1.5c1.7,1.1,3.4,2.6,5,4.2
		c2.4,2.4,4.6,5.2,6.1,7.3c0.8,1.1,1.4,1.9,1.8,2.6c0.2,0.3,0.4,0.6,0.5,0.7c0.1,0.1,0.1,0.1,0.1,0.2l0,0l0,0l0,0l0.1,0.1
		c0.4,0.6,0.9,1.2,1.4,1.6c0.8,0.7,1.7,1.1,2.5,1.3c0.8,0.2,1.6,0.3,2.2,0.3c0.7,0,1.3-0.1,1.7-0.2c0.4-0.1,0.7-0.2,0.8-0.2l0.2-0.1
		c3.1-1.3,5.7-1.7,7.9-1.7c2.8,0,4.9,0.7,6.4,1.4c0.7,0.3,1.2,0.7,1.6,0.9c0.2,0.1,0.3,0.2,0.3,0.3l0,0c2.6,2.5,4.3,5.3,5.4,8.2
		c1.1,3,1.5,6.2,1.5,9.3c0,4.3-0.8,8.4-1.6,11.3c-0.4,1.5-0.8,2.7-1.1,3.5c-0.1,0.4-0.3,0.7-0.3,0.9c0,0.1-0.1,0.2-0.1,0.2l0,0l0,0
		c-0.4,0.8-0.4,1.8-0.1,2.6c1.8,5.5,3.2,11.3,4.3,16.9c1.6,8.4,2.4,16.5,2.8,22.4c0.2,3,0.3,5.4,0.3,7.1c0,0.8,0,1.5,0,1.9
		c0,0.2,0,0.4,0,0.5c0,0.1,0,0.1,0,0.1C136.8,271.5,136.4,273.4,135.9,274.8z M157.4,262.6c-0.1,0.5-0.2,1-0.3,1.4
		c-0.1,0.3-0.1,0.6-0.2,0.9c0,0.1,0,0.1,0,0.2l-12.9,7.2c0.1-1,0.2-2.1,0.2-3.2l0,0c0-0.1,0-7.1-1-16.9c-0.5-4.9-1.2-10.6-2.3-16.5
		c-1-5.5-2.4-11.1-4.1-16.6c0.4-1,0.9-2.5,1.4-4.4c0.9-3.4,1.9-8.1,1.9-13.3c0-3.7-0.5-7.8-1.9-11.7c-1.4-4-3.7-7.9-7.3-11.2l0,0
		c-0.2-0.2-1.4-1.3-3.7-2.4c-2.2-1.1-5.5-2.1-9.6-2.1c-3.1,0-6.6,0.6-10.4,2.2c-0.1,0-0.1,0-0.2,0c0,0,0,0,0,0c-0.2-0.4-0.9-1.5-2-3
		c-1-1.4-2.3-3.1-3.8-4.9c-2.3-2.7-5-5.7-8.2-8.1c-0.8-0.6-1.6-1.1-2.4-1.7l10.8-5.2c0.6-0.3,1.1-0.4,1.8-0.4c0.7,0,1.6,0.2,2.6,0.6
		c0.9,0.3,1.8,0.8,2.7,1.5c1.7,1.1,3.4,2.6,5,4.2c2.4,2.4,4.6,5.2,6.1,7.3c0.8,1.1,1.4,1.9,1.8,2.6c0.2,0.3,0.4,0.6,0.5,0.7
		c0.1,0.1,0.1,0.1,0.1,0.2l0,0l0,0l0,0l0.1,0.1c0.4,0.6,0.9,1.2,1.4,1.6c0.8,0.7,1.7,1.1,2.5,1.3c0.8,0.2,1.6,0.3,2.2,0.3
		c0.7,0,1.2-0.1,1.7-0.2c0.4-0.1,0.7-0.2,0.8-0.2l0.2-0.1c3.1-1.3,5.7-1.7,7.9-1.7c2.8,0,4.9,0.7,6.4,1.4c0.7,0.3,1.2,0.7,1.6,0.9
		c0.2,0.1,0.3,0.2,0.3,0.3l0,0c2.6,2.5,4.3,5.3,5.4,8.2c1.1,3,1.5,6.2,1.5,9.3c0,4.3-0.8,8.4-1.6,11.3c-0.4,1.5-0.8,2.7-1.1,3.5
		c-0.1,0.4-0.3,0.7-0.3,0.9c0,0.1-0.1,0.2-0.1,0.2l0,0l0,0c-0.4,0.8-0.4,1.8-0.1,2.6c1.8,5.5,3.2,11.3,4.3,16.9
		c1.6,8.4,2.4,16.5,2.8,22.4c0.2,3,0.3,5.4,0.3,7.1c0,0.8,0,1.5,0,1.9c0,0.2,0,0.4,0,0.5C157.9,259.2,157.7,260.9,157.4,262.6z
		 M185.9,247c0,2.7-0.4,4.7-1,6.1c-0.4,1.1-0.9,1.9-1.4,2.6c-0.4,0.5-0.8,0.9-1.3,1.2c-0.7,0.5-1.5,0.8-2.5,1.1
		c-0.9,0.2-2,0.3-3.1,0.3c-1.3,0-2.6-0.1-3.8-0.4c-1.9-0.3-3.6-0.9-4.9-1.3c-0.6-0.2-1.1-0.4-1.5-0.6c-0.2-0.1-0.3-0.1-0.4-0.2
		l-0.1,0l0,0l0,0c-0.3-0.1-0.6-0.2-0.8-0.3c-0.1-3-0.3-7.8-0.9-13.7c-0.5-4.9-1.2-10.6-2.3-16.5c-1-5.5-2.4-11.1-4.1-16.6
		c0.4-1,0.9-2.5,1.4-4.4c0.9-3.4,1.9-8.1,1.9-13.3c0-3.7-0.5-7.8-1.9-11.7c-1.4-4-3.7-7.9-7.3-11.2l0,0c-0.2-0.2-1.4-1.3-3.7-2.4
		c-2.2-1.1-5.5-2.1-9.6-2.1c-3.1,0-6.6,0.6-10.4,2.2c-0.1,0-0.1,0-0.2,0c0,0,0,0,0,0c-0.2-0.4-0.9-1.5-2-3c-0.8-1.2-1.9-2.7-3.2-4.2
		c0.1-0.4,0.1-0.7,0.1-1.1c-0.1-1.5-0.1-2.8-0.1-4.1c0-4.3,0.4-7.5,0.9-10c0.4-1.8,0.8-3.2,1.3-4.2c0.7-1.5,1.3-2.2,1.5-2.5
		c0.1-0.1,0.1-0.1,0.2-0.1c0.3-0.1,0.5-0.2,0.8-0.3c0.1,0,0.2,0,0.3-0.1c0.2,0,0.5-0.1,0.7-0.1c0.8,0,1.7,0.2,2.8,0.6
		c0.9,0.4,1.9,0.9,2.9,1.5c1.7,1.1,3.6,2.7,5.2,4.4c2.5,2.6,4.8,5.4,6.4,7.6c0.8,1.1,1.4,2,1.9,2.7c0.2,0.3,0.4,0.6,0.5,0.8
		c0.1,0.1,0.1,0.1,0.1,0.2l0,0l0,0l0,0l0.1,0.1c0.4,0.6,0.9,1.2,1.4,1.6c0.8,0.7,1.7,1.1,2.5,1.4c0.8,0.2,1.6,0.3,2.3,0.3
		c0.7,0,1.3-0.1,1.7-0.2c0.4-0.1,0.7-0.2,0.8-0.2l0.2-0.1c3.2-1.3,6-1.8,8.3-1.8c3,0,5.2,0.8,6.7,1.5c0.8,0.4,1.3,0.7,1.7,1
		c0.2,0.1,0.3,0.2,0.4,0.3l0,0c2.8,2.6,4.5,5.5,5.7,8.7c1.1,3.1,1.5,6.5,1.5,9.7c0,4.5-0.8,8.8-1.7,11.9c-0.4,1.6-0.8,2.8-1.2,3.7
		c-0.2,0.4-0.3,0.8-0.4,1c0,0.1-0.1,0.2-0.1,0.2l0,0l0,0h0c-0.4,0.8-0.4,1.7-0.1,2.6c1.9,5.7,3.4,11.8,4.5,17.6
		c1.6,8.8,2.5,17.2,2.9,23.4c0.2,3.1,0.3,5.6,0.4,7.4c0,0.9,0,1.6,0,2c0,0.2,0,0.4,0,0.5C185.9,246.9,185.9,247,185.9,247L185.9,247
		z M246.1,224.7c-0.1,0.9-0.3,1.8-0.6,2.6c-0.4,1.3-1.1,2.6-1.9,3.6c-0.4,0.5-0.9,1-1.5,1.4c-0.6,0.4-1.2,0.8-2,1.1l-0.1,0
		l-47.2,19.2c0.4-1.7,0.5-3.6,0.6-5.6v0c0-0.1,0-7.4-1-17.6c-0.5-5.1-1.3-11-2.4-17.2c-1.1-5.7-2.5-11.6-4.3-17.4
		c0.4-1,0.9-2.6,1.5-4.6c1-3.6,1.9-8.4,1.9-13.8c0-3.9-0.5-8.1-2-12.2c-1.5-4.1-3.9-8.2-7.6-11.6l0,0c-0.2-0.2-1.5-1.3-3.8-2.4
		c-2.3-1.1-5.7-2.2-9.9-2.2c-3.2,0-6.8,0.6-10.8,2.2c-0.1,0-0.2,0-0.2,0c-0.1,0-0.1,0-0.1,0l0,0c-0.2-0.3-1-1.5-2.1-3.2
		c-1-1.4-2.4-3.2-3.9-5.1c-2.4-2.8-5.3-5.9-8.5-8.4c-0.7-0.5-1.4-1-2.2-1.5l49.2-22.3l0,0c0.6-0.3,1.2-0.4,1.9-0.4
		c0.8,0,1.7,0.2,2.8,0.6c0.9,0.4,1.9,0.9,2.9,1.5c1.7,1.1,3.6,2.7,5.2,4.4c2.5,2.6,4.8,5.4,6.4,7.6c0.8,1.1,1.4,2,1.9,2.7
		c0.2,0.3,0.4,0.6,0.5,0.8c0.1,0.1,0.1,0.1,0.1,0.2l0,0l0,0l0,0h0l0.1,0.1c0.4,0.6,0.9,1.2,1.4,1.6c0.8,0.7,1.7,1.1,2.5,1.4
		c0.8,0.2,1.6,0.3,2.3,0.3c0.7,0,1.3-0.1,1.7-0.2c0.4-0.1,0.7-0.2,0.8-0.2l0.2-0.1c3.2-1.3,6-1.8,8.3-1.8c3,0,5.2,0.8,6.7,1.5
		c0.8,0.4,1.3,0.7,1.7,1c0.2,0.1,0.3,0.2,0.4,0.3l0,0c2.8,2.6,4.5,5.5,5.7,8.7c1.1,3.1,1.5,6.5,1.5,9.7c0,4.5-0.8,8.8-1.7,11.9
		c-0.4,1.6-0.8,2.8-1.2,3.7c-0.2,0.4-0.3,0.8-0.4,1c0,0.1-0.1,0.2-0.1,0.2l0,0l0,0l0,0c-0.4,0.8-0.4,1.7-0.1,2.6
		c1.9,5.7,3.4,11.8,4.5,17.6c1.6,8.8,2.5,17.2,2.9,23.4c0.2,3.1,0.3,5.6,0.4,7.4c0,0.9,0,1.6,0,2c0,0.2,0,0.4,0,0.5
		c0,0.1,0,0.1,0,0.1v0l0,0c0,0.1,0,0.2,0,0.4h0l0,0c0,0,0.1,0.5,0.1,1.3C246.3,222.5,246.2,223.6,246.1,224.7z"/>
	<path class="st0" d="M86.7,212.5c-1.4,0-2.5,1.1-2.5,2.5c0,1.4,1.1,2.5,2.5,2.5c1.4,0,2.5-1.1,2.5-2.5
		C89.2,213.6,88,212.5,86.7,212.5z"/>
	<path class="st0" d="M105.7,199.3c0-1.1-0.9-2-2-2s-2,0.9-2,2c0,1.1,0.9,2,2,2S105.7,200.5,105.7,199.3z"/>
	<path class="st0" d="M111.6,250.7c-1.6,0-2.9,1.3-2.9,2.9c0,1.6,1.3,2.9,2.9,2.9c1.6,0,2.9-1.3,2.9-2.9
		C114.6,252,113.3,250.7,111.6,250.7z"/>
	<path class="st0" d="M105.7,223.4c-1.2,0-2.1,0.9-2.1,2.1c0,1.1,0.9,2.1,2.1,2.1c1.1,0,2.1-0.9,2.1-2.1
		C107.8,224.3,106.9,223.4,105.7,223.4z"/>
	<path class="st0" d="M172.4,177.1c0-1.2-0.9-2.1-2.1-2.1c-1.2,0-2.1,0.9-2.1,2.1c0,1.2,0.9,2.1,2.1,2.1
		C171.4,179.2,172.4,178.3,172.4,177.1z"/>
	<path class="st0" d="M161.6,208.3c-1.2,0-2.1,0.9-2.1,2.1c0,1.2,0.9,2.1,2.1,2.1c1.1,0,2.1-0.9,2.1-2.1
		C163.6,209.3,162.7,208.3,161.6,208.3z"/>
	<path class="st0" d="M130.6,151.4c-1.2,0-2.1,0.9-2.1,2.1c0,1.2,0.9,2.1,2.1,2.1c1.1,0,2.1-0.9,2.1-2.1
		C132.7,152.3,131.8,151.4,130.6,151.4z"/>
	<path class="st0" d="M172.4,241.6c-1.2,0-2.1,0.9-2.1,2.1c0,1.1,0.9,2.1,2.1,2.1c1.2,0,2.1-0.9,2.1-2.1
		C174.5,242.5,173.5,241.6,172.4,241.6z"/>
	<path class="st0" d="M76.1,234c-1.4,0-2.6,1.2-2.6,2.6c0,1.4,1.2,2.6,2.6,2.6s2.6-1.2,2.6-2.6C78.6,235.2,77.5,234,76.1,234z"/>
	<path class="st0" d="M85.4,188.4c0.7,0,1.3-0.6,1.3-1.3c0-0.7-0.6-1.3-1.3-1.3c-0.7,0-1.3,0.6-1.3,1.3
		C84.1,187.9,84.7,188.4,85.4,188.4z"/>
</g>
</svg>
