<?xml version="1.0" encoding="utf-8"?>
<!-- Generator: Adobe Illustrator 24.3.0, SVG Export Plug-In . SVG Version: 6.00 Build 0)  -->
<svg version="1.1" id="Layer_1" xmlns="http://www.w3.org/2000/svg" xmlns:xlink="http://www.w3.org/1999/xlink" x="0px" y="0px"
	 viewBox="0 0 312 390" style="enable-background:new 0 0 312 390;" xml:space="preserve">
<style type="text/css">
	.st0{fill:#2FB672;}
</style>
<path class="st0" d="M62.6,200.4h7.9v74.7c0,2,1.6,3.7,3.7,3.7h161.6c2,0,3.7-1.6,3.7-3.7v-74.7h7.9c2,0,3.7-1.6,3.7-3.7v-21.5
	c0-2-1.6-3.7-3.7-3.7h-5c0.1-1,0.1-2.1,0.1-3.2c0-20.3-13.8-36.9-30.7-36.9c-5.8,0-11.3,1.9-16.2,5.5c-4.6-2-9.4-3-14.3-3
	c-1.5,0-3,0.1-4.5,0.3c-3.1-6.7-7.5-12.3-12.9-16.5c-6.4-5-13.7-7.6-21.4-7.6c-21.6,0-44.4,13.3-47.9,38.8c-1.3,0.4-3.1,1.2-5.3,2.4
	c-2.8,1.5-15.8,9.2-20.1,20.1h-6.7c-2,0-3.7,1.6-3.7,3.7v21.5C59,198.7,60.6,200.4,62.6,200.4z M232.1,218h-62.7
	c-2,0-3.7,1.6-3.7,3.7c0,2,1.6,3.7,3.7,3.7h62.7V249h-72.4c-2,0-3.7,1.6-3.7,3.7c0,2,1.6,3.7,3.7,3.7h72.4v15.1H77.9v-12.7h30.5
	c2,0,3.7-1.6,3.7-3.7c0-2-1.6-3.7-3.7-3.7H77.9v-11.9H155c2,0,3.7-1.6,3.7-3.7c0-2-1.6-3.7-3.7-3.7H77.9v-9.4h42.3
	c2,0,3.7-1.6,3.7-3.7c0-2-1.6-3.7-3.7-3.7H77.9v-15.2h154.3V218z M97.7,155.8c0.9,0.1,1.7-0.1,2.5-0.6c0.9-0.6,1.5-1.6,1.6-2.8
	c1.1-13.9,8.5-22.1,14.5-26.5c7.3-5.3,16.9-8.4,26.4-8.4c12.2,0,23.1,8.5,28.6,22.2c0.7,1.7,2.4,2.6,4.2,2.2c2-0.4,4-0.6,6-0.6
	c4.6,0,9,1.1,13.2,3.2c1.3,0.7,2.9,0.5,4.1-0.5c3.9-3.4,8.5-5.3,13.2-5.3c12.9,0,23.3,13.3,23.3,29.5c0,1.1,0,2.1-0.1,3.2H77.5
	C82.6,163.3,94.8,156.4,97.7,155.8z M66.3,178.9h172c0,0,0,0,0,0c0,0,0,0,0,0h5.4V193h-7.9H74.2h-7.9V178.9z"/>
<path class="st0" d="M139.3,135c-2.3,0-4.2,1.9-4.2,4.2c0,2.3,1.9,4.2,4.2,4.2c2.3,0,4.2-1.9,4.2-4.2
	C143.5,136.9,141.6,135,139.3,135z"/>
<path class="st0" d="M104.1,160.6c-2.3,0-4.2,1.9-4.2,4.2c0,2.3,1.9,4.2,4.2,4.2c2.3,0,4.2-1.9,4.2-4.2
	C108.3,162.5,106.5,160.6,104.1,160.6z"/>
<path class="st0" d="M183.7,154.7c-2.3,0-4.2,1.9-4.2,4.2c0,2.3,1.9,4.2,4.2,4.2c2.3,0,4.2-1.9,4.2-4.2
	C187.9,156.6,186,154.7,183.7,154.7z"/>
<path class="st0" d="M212.5,152.2c-2.3,0-4.2,1.9-4.2,4.2c0,2.3,1.9,4.2,4.2,4.2c2.3,0,4.2-1.9,4.2-4.2
	C216.7,154.1,214.8,152.2,212.5,152.2z"/>
</svg>
