<?xml version="1.0" encoding="utf-8"?>
<!-- Generator: Adobe Illustrator 24.3.0, SVG Export Plug-In . SVG Version: 6.00 Build 0)  -->
<svg version="1.1" id="Layer_1" xmlns="http://www.w3.org/2000/svg" xmlns:xlink="http://www.w3.org/1999/xlink" x="0px" y="0px"
	 viewBox="0 0 312 390" style="enable-background:new 0 0 312 390;" xml:space="preserve">
<style type="text/css">
	.st0{fill:#2EB872;}
</style>
<g>
	<path class="st0" d="M202,124.3c-1.8,0.3-3.1,2-2.8,3.8c1.3,9.9,0.7,18.7-1.6,26l-7.9-49.3c-1.7-12.9-16.2-37.6-33.7-37.6
		c-0.3,0-0.6,0-0.8,0c-0.1,0-0.2,0-0.4,0c-0.3,0-0.6,0.1-0.9,0.1c-16.5,1.9-29.9,25.3-31.6,37.9l-7.6,47.2
		c-2.5-6.9-3.2-14.9-1.9-24.3c0.2-1.8-1-3.5-2.8-3.8c-1.8-0.3-3.6,0.9-3.9,2.7c-0.8,4.1-20.2,99.7,5,132.3
		c4.8,6.2,10.9,9.8,18.2,10.9c0.6,2.4,1.8,6,4.1,9.6c5.1,8.2,12.8,12.6,22.5,12.6c9.6,0,17.3-4.4,22.2-12.8c2.1-3.7,3.3-7.3,3.9-9.7
		c7.3-1,13.4-4.7,18.2-10.9c25.4-32.6,6.8-127.8,6-131.9C205.6,125.2,203.8,124,202,124.3z M177.8,92.4c2.5,4.5,4.3,9.1,4.9,12.6
		h-5.9V92.4H177.8z M170,179.5c-1.3,1-2.5,2.2-3.7,3.6h-8.2v-12.6H170V179.5z M140.6,179.5v-9.1h10.7V183h-7.7
		C142.6,181.7,141.6,180.5,140.6,179.5z M140.6,131.4h10.7V144h-10.7V131.4z M133.7,144h-10.8l2-12.6h8.7V144z M183.8,111.9l2,12.6
		h-9v-12.6H183.8z M176.8,131.4h10.1l2,12.6h-12.1V131.4z M170,144h-11.8v-12.6H170V144z M170,124.5h-11.8v-12.6H170V124.5z
		 M151.3,124.5h-10.7v-12.6h10.7V124.5z M151.3,150.9v12.6h-10.7v-12.6H151.3z M158.2,163.5v-12.6H170v12.6H158.2z M176.8,150.9
		h13.2l2,12.6h-15.2V150.9z M170,105h-11.8V92.4H170V105z M151.3,105h-10.7V92.4h10.7V105z M133.7,93.3V105h-4.5
		C129.9,101.7,131.5,97.5,133.7,93.3z M133.7,111.9v12.6h-7.6l2-12.6H133.7z M121.8,150.9h11.9v12.6H121c-0.4-0.4-0.7-0.9-1-1.3
		L121.8,150.9z M133.7,170.4v4.2c-2.1-1.4-4-2.8-5.7-4.2H133.7z M151.3,189.9v8.6c-1.1-3.2-2.3-6-3.6-8.6H151.3z M158.2,189.9h3.8
		c-1.4,2.8-2.7,6-3.8,9.6V189.9z M176.8,170.4h9.9c-2.9,2.3-6.2,4.2-9.9,5.6V170.4z M170,81.6v3.9h-11.8V74.4
		C162.3,75.1,166.4,77.9,170,81.6z M151.3,75v10.5h-10.7v-0.8c0-0.4-0.1-0.8-0.2-1.2C143.6,79.6,147.4,76.5,151.3,75z M194.6,254.7
		c-4.2,5.4-9.4,8.2-15.8,8.5c-1.7,0.1-3,1.3-3.2,3c0,0-0.7,5-3.5,9.9c-3.7,6.3-9.2,9.4-16.3,9.4c-7.1,0-12.7-3.1-16.5-9.1
		c-3-4.8-3.8-9.8-3.8-9.8c-0.2-1.6-1.6-2.8-3.2-2.9c-6.4-0.3-11.6-3.1-15.7-8.4c-9.5-12.3-13.2-38-10.7-74.3
		c0.6-9.2,1.6-18.1,2.6-25.8c2,5.4,4.9,9.9,8.3,13.8c0.1,0.2,0.3,0.4,0.5,0.6c4.8,5.4,10.7,9.6,16.5,13.2
		c11.1,6.8,17.4,39.4,18.9,51.4c0.2,1.8,1.8,3.1,3.5,3c1.8-0.1,3.2-1.5,3.3-3.3c0-0.1,0.5-11.8,3.2-24.1c3.3-15.2,8.6-24.7,15-26.7
		c10.4-3.4,18.5-10.1,23.4-19.3c1-2,2-4,2.7-6.2c0.8,7,1.6,14.9,2.1,23C208,216.8,204.1,242.4,194.6,254.7z"/>
	<path class="st0" d="M129.5,250.3c-5.8-0.8-10.3-13.6-11.9-34.3c-1.4-17.5-0.5-34.9-0.5-35c0.1-1.9-1.3-3.5-3.2-3.6
		c-1.9-0.1-3.5,1.3-3.6,3.2c0,0.7-1,18,0.5,35.9c2.1,25.9,7.9,39.2,17.8,40.6c0.2,0,0.3,0,0.5,0c1.7,0,3.2-1.2,3.4-3
		C132.7,252.3,131.4,250.5,129.5,250.3z"/>
</g>
</svg>
